<svg width="207" height="162" viewBox="0 0 207 162" fill="none" xmlns="http://www.w3.org/2000/svg">
<path d="M44.7016 84.474C37.4356 96.7918 28.232 96.7918 24.3568 96.7918C15.6376 97.2806 17.0908 110.58 17.0908 118.461C29.6852 118.461 41.3108 112.058 42.2796 111.565C43.2484 111.073 44.7016 110.087 45.6704 110.087C46.6392 110.087 47.608 110.087 49.5456 111.565C51.4832 113.043 65.5308 118.461 75.7032 118.461C85.8756 118.461 99.2677 112.338 100.408 111.565C101.861 110.58 102.83 110.087 103.798 110.087C104.767 110.087 106.382 110.58 107.674 111.565C108.965 112.55 123.659 118.461 133.347 118.461C143.035 118.461 153.692 114.524 157.567 112.062C158.484 111.479 159.79 110.087 161.926 110.087C164.063 110.087 165.317 111.403 166.286 112.062C173.552 117.475 182.756 118.465 190.991 118.465C190.991 103.195 191.353 100.35 187.6 99.2547C184.209 98.2652 179.849 96.5231 175.005 93.8364C169.677 90.881 166.286 86.4479 161.442 86.4479C157.567 86.4479 155.306 87.7614 154.66 88.4181C146.91 93.8364 143.035 96.2993 133.347 96.2993C117.846 96.2993 112.518 81.0295 113.002 75.1186C113.486 69.2078 116.026 53.6104 134.8 51.471C139.16 50.9742 145.139 51.4337 151.754 55.9084C154.66 57.8744 159.609 61.0167 163.864 58.3712C172.583 52.9507 150.761 11.2855 107.189 13.0547C46.6392 15.5134 48.0924 76.1003 44.7016 84.474Z" fill="#1C222C"/>
<path d="M166.77 127.327C171.847 130.775 183.724 133.73 190.991 133.73V149H17.0908V133.727C29.6852 133.727 41.3108 127.323 42.2796 126.831C43.2484 126.338 44.7016 125.353 45.6704 125.353C46.6392 125.353 47.608 125.353 49.5456 126.831C51.4832 128.308 65.5308 133.727 75.7032 133.727C85.8757 133.727 99.2677 127.603 100.408 126.831C101.861 125.845 102.83 125.353 103.798 125.353C104.767 125.353 106.382 125.845 107.674 126.831C108.965 127.816 123.659 133.727 133.347 133.727C143.035 133.727 151.754 130.775 157.567 127.327C158.501 126.773 160.473 125.353 161.926 125.353C163.38 125.353 165.802 126.669 166.77 127.327Z" fill="#1C222C"/>
</svg>
