<svg width="33" height="26" viewBox="0 0 33 26" fill="none" xmlns="http://www.w3.org/2000/svg">
<path d="M15.9177 6.59734L5.45085 15.218V24.5222C5.45085 24.7631 5.54655 24.9941 5.7169 25.1645C5.88725 25.3348 6.11828 25.4305 6.35919 25.4305L12.7209 25.4141C12.961 25.4128 13.1909 25.3166 13.3603 25.1464C13.5297 24.9762 13.6247 24.7458 13.6247 24.5057V19.0722C13.6247 18.8313 13.7204 18.6002 13.8908 18.4299C14.0611 18.2595 14.2922 18.1638 14.5331 18.1638H18.1664C18.4073 18.1638 18.6383 18.2595 18.8087 18.4299C18.979 18.6002 19.0747 18.8313 19.0747 19.0722V24.5017C19.0744 24.6213 19.0976 24.7397 19.1431 24.8502C19.1885 24.9608 19.2554 25.0612 19.3398 25.1459C19.4242 25.2305 19.5244 25.2977 19.6348 25.3435C19.7452 25.3893 19.8635 25.4129 19.9831 25.4129L26.3425 25.4305C26.5834 25.4305 26.8145 25.3348 26.9848 25.1645C27.1552 24.9941 27.2509 24.7631 27.2509 24.5222V15.2118L16.7863 6.59734C16.6633 6.49818 16.51 6.4441 16.352 6.4441C16.194 6.4441 16.0407 6.49818 15.9177 6.59734ZM32.4511 12.4567L27.705 8.54458V0.681251C27.705 0.500572 27.6333 0.327293 27.5055 0.199534C27.3777 0.0717745 27.2045 0 27.0238 0H23.8446C23.6639 0 23.4907 0.0717745 23.3629 0.199534C23.2351 0.327293 23.1634 0.500572 23.1634 0.681251V4.80338L18.0807 0.621641C17.5929 0.220259 16.9808 0.000802369 16.3492 0.000802369C15.7175 0.000802369 15.1054 0.220259 14.6176 0.621641L0.247236 12.4567C0.178253 12.5137 0.12118 12.5837 0.0792782 12.6628C0.0373767 12.7419 0.0114681 12.8285 0.00303279 12.9176C-0.00540257 13.0067 0.00380062 13.0965 0.0301165 13.1821C0.0564324 13.2676 0.0993452 13.3471 0.156403 13.4161L1.60406 15.176C1.66096 15.2452 1.73095 15.3025 1.81002 15.3446C1.88909 15.3867 1.97569 15.4128 2.06486 15.4214C2.15403 15.43 2.24402 15.4209 2.32968 15.3947C2.41534 15.3684 2.49499 15.3256 2.56406 15.2685L15.9177 4.26974C16.0407 4.17057 16.194 4.1165 16.352 4.1165C16.51 4.1165 16.6633 4.17057 16.7863 4.26974L30.1405 15.2685C30.2095 15.3256 30.289 15.3685 30.3745 15.3948C30.4601 15.4211 30.5499 15.4303 30.639 15.4219C30.7281 15.4135 30.8147 15.3876 30.8938 15.3457C30.9729 15.3038 31.0429 15.2467 31.0999 15.1777L32.5476 13.4178C32.6046 13.3484 32.6473 13.2685 32.6733 13.1826C32.6993 13.0967 32.7081 13.0065 32.6991 12.9172C32.6902 12.8279 32.6636 12.7412 32.6211 12.6622C32.5785 12.5831 32.5207 12.5133 32.4511 12.4567Z" fill="#1C222C"/>
</svg>
