<svg width="46" height="36" viewBox="0 0 46 36" fill="none" xmlns="http://www.w3.org/2000/svg">
<path d="M7.28896 18.6598C5.3771 21.8756 2.95541 21.8756 1.93576 21.8756C-0.358473 22.0032 0.0238991 25.4753 0.0238972 27.5328C3.33779 27.5328 6.39676 25.8611 6.65168 25.7325C6.90659 25.6039 7.28896 25.3467 7.54388 25.3467C7.79879 25.3467 8.0537 25.3467 8.56353 25.7325C9.07336 26.1183 12.7696 27.5328 15.4462 27.5328C18.1228 27.5328 21.6466 25.9342 21.9465 25.7325C22.3289 25.4753 22.5838 25.3467 22.8387 25.3467C23.0937 25.3467 23.5185 25.4753 23.8584 25.7325C24.1983 25.9897 28.0645 27.5328 30.6136 27.5328C33.1628 27.5328 35.9669 26.505 36.9865 25.8621C37.2278 25.7099 37.5715 25.3467 38.1336 25.3467C38.6958 25.3467 39.0258 25.6903 39.2807 25.8621C41.1926 27.2755 43.6143 27.5338 45.7811 27.5338C45.7811 23.5473 45.8764 22.8045 44.8889 22.5186C43.9967 22.2603 42.8495 21.8054 41.575 21.104C40.1729 20.3324 39.2807 19.1751 38.0062 19.1751C36.9865 19.1751 36.3917 19.518 36.2218 19.6895C34.1824 21.104 33.1628 21.747 30.6136 21.747C26.535 21.747 25.133 17.7605 25.2604 16.2174C25.3879 14.6742 26.0561 10.6022 30.996 10.0437C32.1431 9.91396 33.7165 10.0339 35.457 11.2021C36.2218 11.7154 37.5238 12.5357 38.6435 11.8451C40.9377 10.4299 35.1958 -0.447604 23.7309 0.0142918C7.79879 0.656165 8.18116 16.4736 7.28896 18.6598Z" fill="#1C222C"/>
<path d="M39.4082 29.8474C40.7439 30.7476 43.8692 31.5191 45.7811 31.5191V35.5056H0.0238982V31.5182C3.33779 31.5182 6.39676 29.8464 6.65168 29.7178C6.90659 29.5892 7.28896 29.332 7.54388 29.332C7.79879 29.332 8.0537 29.332 8.56353 29.7178C9.07336 30.1036 12.7696 31.5182 15.4462 31.5182C18.1228 31.5182 21.6466 29.9196 21.9465 29.7178C22.3289 29.4606 22.5838 29.332 22.8388 29.332C23.0937 29.332 23.5185 29.4606 23.8584 29.7178C24.1983 29.975 28.0645 31.5182 30.6136 31.5182C33.1628 31.5182 35.457 30.7476 36.9865 29.8474C37.2323 29.7027 37.7513 29.332 38.1336 29.332C38.516 29.332 39.1533 29.6756 39.4082 29.8474Z" fill="#1C222C"/>
</svg>
