<svg width="73" height="73" viewBox="0 0 73 73" fill="none" xmlns="http://www.w3.org/2000/svg">
<path d="M36.2504 0C16.225 0 0 16.225 0 36.2504C0 56.2759 16.225 72.5009 36.2504 72.5009C56.2759 72.5009 72.5009 56.2759 72.5009 36.2504C72.5009 16.225 56.2759 0 36.2504 0ZM36.2504 14.0324C43.3543 14.0324 49.1135 19.7916 49.1135 26.8955C49.1135 33.9994 43.3543 39.7585 36.2504 39.7585C29.1465 39.7585 23.3874 33.9994 23.3874 26.8955C23.3874 19.7916 29.1465 14.0324 36.2504 14.0324ZM36.2504 64.3153C27.6702 64.3153 19.9816 60.4271 14.8364 54.3464C17.5844 49.172 22.9635 45.6054 29.2342 45.6054C29.585 45.6054 29.9358 45.6639 30.272 45.7662C32.1723 46.3801 34.1602 46.7747 36.2504 46.7747C38.3407 46.7747 40.3432 46.3801 42.2288 45.7662C42.565 45.6639 42.9158 45.6054 43.2666 45.6054C49.5374 45.6054 54.9165 49.172 57.6645 54.3464C52.5193 60.4271 44.8307 64.3153 36.2504 64.3153Z" fill="#98C1D7"/>
</svg>
