<svg width="21" height="25" viewBox="0 0 21 25" fill="none" xmlns="http://www.w3.org/2000/svg">
<path d="M10.3714 12.0999C13.7151 12.0999 16.4213 9.39366 16.4213 6.04997C16.4213 2.70628 13.7151 0 10.3714 0C7.02769 0 4.32141 2.70628 4.32141 6.04997C4.32141 9.39366 7.02769 12.0999 10.3714 12.0999ZM14.5199 13.8285H14.0716C12.948 14.3687 11.7002 14.6928 10.3714 14.6928C9.04254 14.6928 7.80014 14.3687 6.67117 13.8285H6.22283C2.78731 13.8285 0 16.6158 0 20.0513V21.607C0 23.0385 1.16138 24.1999 2.59284 24.1999H18.1499C19.5814 24.1999 20.7428 23.0385 20.7428 21.607V20.0513C20.7428 16.6158 17.9554 13.8285 14.5199 13.8285Z" fill="#1C222C"/>
</svg>
