<svg width="26" height="27" viewBox="0 0 26 27" fill="none" xmlns="http://www.w3.org/2000/svg">
<path d="M25.1577 8.65426C25.325 9.10619 25.1839 9.61007 24.8232 9.93214L22.5596 11.9788C22.6171 12.41 22.6484 12.8515 22.6484 13.2983C22.6484 13.745 22.6171 14.1865 22.5596 14.6177L24.8232 16.6644C25.1839 16.9865 25.325 17.4903 25.1577 17.9423C24.9277 18.5604 24.6507 19.1526 24.3318 19.724L24.0861 20.1448C23.741 20.7162 23.3542 21.2564 22.9307 21.7655C22.6223 22.1395 22.11 22.2642 21.6499 22.1188L18.7381 21.1993C18.0376 21.7344 17.2639 22.1811 16.4379 22.5187L15.7844 25.4849C15.6799 25.9576 15.314 26.3316 14.833 26.4095C14.1116 26.529 13.3692 26.5913 12.6112 26.5913C11.8532 26.5913 11.1109 26.529 10.3894 26.4095C9.90849 26.3316 9.54255 25.9576 9.438 25.4849L8.78454 22.5187C7.95856 22.1811 7.18486 21.7344 6.48434 21.1993L3.57773 22.1239C3.11769 22.2694 2.60538 22.1395 2.29694 21.7707C1.8735 21.2616 1.48665 20.7214 1.14162 20.15L0.895913 19.7292C0.577023 19.1578 0.299954 18.5656 0.0699341 17.9475C-0.0973528 17.4955 0.0437955 16.9916 0.404508 16.6696L2.66811 14.6229C2.6106 14.1865 2.57924 13.745 2.57924 13.2983C2.57924 12.8515 2.6106 12.41 2.66811 11.9788L0.404508 9.93214C0.0437955 9.61007 -0.0973528 9.10619 0.0699341 8.65426C0.299954 8.0361 0.577023 7.44391 0.895913 6.8725L1.14162 6.45174C1.48665 5.88033 1.8735 5.34008 2.29694 4.83101C2.60538 4.457 3.11769 4.33233 3.57773 4.47777L6.48957 5.39723C7.19008 4.86218 7.96379 4.41544 8.78976 4.07779L9.44323 1.11165C9.54778 0.63894 9.91372 0.264926 10.3947 0.187007C11.1161 0.0623356 11.8584 0 12.6165 0C13.3745 0 14.1168 0.0623356 14.8382 0.181812C15.3192 0.259732 15.6851 0.633745 15.7897 1.10646L16.4431 4.07259C17.2691 4.41024 18.0428 4.85698 18.7433 5.39203L21.6552 4.47258C22.1152 4.32713 22.6275 4.457 22.936 4.82582C23.3594 5.33489 23.7463 5.87513 24.0913 6.44654L24.337 6.86731C24.6559 7.43872 24.933 8.03091 25.163 8.64907L25.1577 8.65426ZM12.6165 17.454C13.7256 17.454 14.7894 17.0161 15.5737 16.2368C16.358 15.4574 16.7986 14.4004 16.7986 13.2983C16.7986 12.1961 16.358 11.1391 15.5737 10.3597C14.7894 9.58039 13.7256 9.14256 12.6165 9.14256C11.5073 9.14256 10.4435 9.58039 9.65921 10.3597C8.8749 11.1391 8.43428 12.1961 8.43428 13.2983C8.43428 14.4004 8.8749 15.4574 9.65921 16.2368C10.4435 17.0161 11.5073 17.454 12.6165 17.454Z" fill="#293241"/>
</svg>
