<svg width="25" height="21" viewBox="0 0 25 21" fill="none" xmlns="http://www.w3.org/2000/svg">
<path d="M11.7426 8.46869C12.0551 7.84373 12.9437 7.84381 13.2562 8.46869L15.5707 13.0976L20.473 11.4619C21.1322 11.2372 21.7621 11.8671 21.5424 12.5312L19.9066 17.4335L24.5307 19.7431C25.0262 19.9909 25.1276 20.5997 24.8324 20.9999H18.724C18.8643 19.2373 18.2637 17.4263 16.9184 16.081C14.4818 13.6446 10.5169 13.6445 8.08047 16.081C6.73531 17.4263 6.13455 19.2374 6.2748 20.9999H0.163476C-0.128736 20.6022 -0.0280681 19.9914 0.468164 19.7431L5.09219 17.4286L3.45645 12.5263C3.23196 11.8673 3.86186 11.2375 4.52578 11.457L9.43301 13.0927L11.7426 8.46869ZM12.4994 15.8124C15.0824 15.8124 17.1869 17.9169 17.1869 20.4999C17.1869 20.6688 17.1771 20.8356 17.1596 20.9999H7.83926C7.82172 20.8356 7.81191 20.6688 7.81191 20.4999C7.81191 17.917 9.91656 15.8126 12.4994 15.8124Z" fill="#EE6C4D"/>
<path d="M9.99998 3C9.78467 3.20757 9.78467 3.54681 9.99998 3.75661C10.2176 3.97087 10.5726 3.96641 10.7856 3.74768L11.9999 2V7.12179C11.9999 7.41863 12.1953 7.5 12.4999 7.5C12.8046 7.5 12.9999 7.41863 12.9999 7.12179V2L14.2144 3.74768C14.4274 3.96418 14.7824 3.96864 15 3.75661C15.2153 3.54905 15.2153 3.2098 15 3L12.8351 0.157348C12.6221 -0.0524495 12.3807 -0.0524495 12.1654 0.157348L9.99998 3Z" fill="#293241"/>
</svg>
