<svg width="25" height="22" viewBox="0 0 25 22" fill="none" xmlns="http://www.w3.org/2000/svg">
<path d="M11.7426 9.46869C12.0551 8.84373 12.9437 8.84381 13.2562 9.46869L15.5707 14.0976L20.473 12.4619C21.1322 12.2372 21.7621 12.8671 21.5424 13.5312L19.9066 18.4335L24.5307 20.7431C25.0262 20.9909 25.1276 21.5997 24.8324 21.9999H18.724C18.8643 20.2373 18.2637 18.4263 16.9184 17.081C14.4818 14.6446 10.5169 14.6445 8.08047 17.081C6.73531 18.4263 6.13455 20.2374 6.2748 21.9999H0.163476C-0.128736 21.6022 -0.0280681 20.9914 0.468164 20.7431L5.09219 18.4286L3.45645 13.5263C3.23196 12.8673 3.86186 12.2375 4.52578 12.457L9.43301 14.0927L11.7426 9.46869ZM12.4994 16.8124C15.0824 16.8124 17.1869 18.9169 17.1869 21.4999C17.1869 21.6688 17.1771 21.8356 17.1596 21.9999H7.83926C7.82172 21.8356 7.81191 21.6688 7.81191 21.4999C7.81191 18.917 9.91656 16.8126 12.4994 16.8124Z" fill="#EE6C4D"/>
<path d="M10.1615 4.5C9.94617 4.29243 9.94617 3.95319 10.1615 3.74339C10.3791 3.52913 10.7341 3.53359 10.9471 3.75232L12.1614 5.5V0.378211C12.1614 0.0813694 12.3568 0 12.6614 0C12.9661 0 13.1614 0.0813694 13.1614 0.378211V5.5L14.3759 3.75232C14.5889 3.53582 14.9439 3.53136 15.1615 3.74339C15.3768 3.95095 15.3768 4.2902 15.1615 4.5L12.9966 7.34265C12.7836 7.55245 12.5422 7.55245 12.3269 7.34265L10.1615 4.5Z" fill="#293241"/>
</svg>
