<svg width="17" height="14" viewBox="0 0 17 14" fill="none" xmlns="http://www.w3.org/2000/svg">
<path d="M3.06475 3.74347L5.77702 4.7601C6.71174 2.53052 8.06694 0.814717 9.46916 0.0105461C6.92238 -0.123163 4.45475 1.02116 2.86766 3.06754C2.68996 3.29723 2.797 3.64312 3.06475 3.74347ZM6.5776 5.06033L12.9122 7.43457C13.862 4.11562 13.4089 1.10018 11.7798 0.489877C11.5833 0.416049 11.3779 0.380503 11.1665 0.380503C9.62535 0.380776 7.75935 2.27185 6.5776 5.06033ZM13.8517 1.65443C14.0169 2.10013 14.1393 2.60052 14.2023 3.16352C14.3548 4.52768 14.1646 6.1229 13.6989 7.72933L16.4247 8.75088C16.6928 8.85123 16.9908 8.65709 16.9977 8.36342C17.0593 5.74693 15.8845 3.23817 13.8517 1.65443ZM14.8748 12.2495H8.52806L10.253 7.36921L8.65556 6.77039L6.71918 12.2492H0.424995C0.190185 12.2492 0 12.445 0 12.687V13.5622C0 13.8039 0.190185 14 0.424995 14H14.8748C15.1096 14 15.2998 13.8039 15.2998 13.5622V12.687C15.2998 12.4453 15.1096 12.2495 14.8748 12.2495Z" fill="#1C222C"/>
</svg>
