<svg width="15" height="9" viewBox="0 0 15 9" fill="none" xmlns="http://www.w3.org/2000/svg">
<path d="M2.23455 6.09934C1.64844 7.15049 0.906032 7.15049 0.593438 7.15049C-0.109896 7.1922 0.00732666 8.32713 0.00732609 8.99967L14.0349 9C14.035 7.69722 14.0642 7.45412 13.7614 7.36067C13.4879 7.27623 13.1362 7.12757 12.7455 6.89829C12.3157 6.64609 12.0422 6.26778 11.6514 6.26778C11.3388 6.26778 11.1565 6.37987 11.1044 6.43591C10.4792 6.89829 10.1666 7.10846 9.38512 7.10846C8.13475 7.10846 7.70493 5.80539 7.74401 5.30098C7.78308 4.79657 7.98793 3.46555 9.50235 3.28298C9.85401 3.24058 10.3364 3.2798 10.8699 3.66165C11.1044 3.82942 11.5035 4.09757 11.8468 3.87182C12.5501 3.40925 10.7899 -0.146309 7.27512 0.00467159C2.39085 0.214481 2.50807 5.38475 2.23455 6.09934Z" fill="#1C222C"/>
</svg>
