<svg width="25" height="21" viewBox="0 0 25 21" fill="none" xmlns="http://www.w3.org/2000/svg">
<path d="M3.98012 13.521C2.93615 15.5065 1.6138 15.5065 1.05701 15.5065C-0.195743 15.5853 0.01305 17.729 0.013049 18.9994L24.9986 19C24.9986 16.5392 25.0507 16.08 24.5114 15.9035C24.0243 15.744 23.3979 15.4632 22.7019 15.0301C21.9363 14.5537 21.4491 13.8391 20.7532 13.8391C20.1964 13.8391 19.8716 14.0509 19.7788 14.1567C18.6652 15.0301 18.1085 15.4271 16.7165 15.4271C14.4894 15.4271 13.7238 12.9657 13.7934 12.013C13.863 11.0602 14.2279 8.54603 16.9253 8.20118C17.5517 8.1211 18.4108 8.19517 19.3612 8.91644C19.7788 9.23336 20.4898 9.73985 21.1012 9.31343C22.3539 8.43969 19.2186 1.72364 12.9582 2.00882C4.25851 2.40513 4.4673 12.1712 3.98012 13.521Z" fill="#3D5A80"/>
<path d="M8 1.25C8.35929 1.25 8.69053 1.39793 8.94043 1.64551L9.04199 1.75781L11.3867 4.61523L11.457 4.70703C11.7882 5.17609 11.8119 5.75047 11.6592 6.2002C11.4985 6.67303 11.0586 7.20117 10.3447 7.20117H9.83984V13.7988H10.3447C11.0587 13.7988 11.4985 14.327 11.6592 14.7998C11.8119 15.2495 11.7882 15.8239 11.457 16.293L11.3867 16.3848L9.04199 19.2422C8.78413 19.5564 8.41058 19.75 8 19.75C7.64071 19.75 7.30947 19.6021 7.05957 19.3545L6.95801 19.2422L4.61328 16.3848C4.21597 15.9006 4.17796 15.2794 4.34082 14.7998C4.50154 14.327 4.94136 13.7988 5.65527 13.7988H6.16016V7.20117H5.65527C4.94134 7.20117 4.50153 6.67301 4.34082 6.2002C4.17797 5.72062 4.21595 5.09944 4.61328 4.61523L6.95801 1.75781L7.05957 1.64551C7.30947 1.39793 7.64071 1.25 8 1.25Z" fill="#1C222C" stroke="white" stroke-width="1.5"/>
</svg>
